<mxfile host="app.diagrams.net" modified="2023-06-20T08:53:34.567Z" agent="Mozilla/5.0 (Windows NT 10.0; Win64; x64) AppleWebKit/537.36 (KHTML, like Gecko) Chrome/114.0.0.0 Safari/537.36 Edg/114.0.1823.37" etag="ongMrM76mtyfzIptK1aa" version="21.2.9" type="github">
  <diagram name="第 1 页" id="6WliwGAg-p7XzSmV7Ei2">
    <mxGraphModel dx="1149" dy="672" grid="1" gridSize="10" guides="1" tooltips="1" connect="1" arrows="1" fold="1" page="1" pageScale="1" pageWidth="827" pageHeight="1169" math="0" shadow="0">
      <root>
        <mxCell id="0" />
        <mxCell id="1" parent="0" />
        <mxCell id="FXFVnluip6qXLuJPzOiz-6" style="edgeStyle=orthogonalEdgeStyle;rounded=0;sketch=1;hachureGap=4;jiggle=2;curveFitting=1;orthogonalLoop=1;jettySize=auto;html=1;exitX=1;exitY=0.5;exitDx=0;exitDy=0;entryX=0;entryY=0.5;entryDx=0;entryDy=0;fontFamily=Architects Daughter;fontSource=https%3A%2F%2Ffonts.googleapis.com%2Fcss%3Ffamily%3DArchitects%2BDaughter;fontSize=16;curved=1;" edge="1" parent="1" source="FXFVnluip6qXLuJPzOiz-1" target="FXFVnluip6qXLuJPzOiz-2">
          <mxGeometry relative="1" as="geometry" />
        </mxCell>
        <mxCell id="FXFVnluip6qXLuJPzOiz-1" value="RPC-client" style="rounded=1;whiteSpace=wrap;html=1;sketch=1;hachureGap=4;jiggle=2;curveFitting=1;fontFamily=Architects Daughter;fontSource=https%3A%2F%2Ffonts.googleapis.com%2Fcss%3Ffamily%3DArchitects%2BDaughter;fontSize=20;fillColor=#dae8fc;strokeColor=#6c8ebf;" vertex="1" parent="1">
          <mxGeometry x="160" y="190" width="110" height="40" as="geometry" />
        </mxCell>
        <mxCell id="FXFVnluip6qXLuJPzOiz-7" style="edgeStyle=orthogonalEdgeStyle;rounded=0;sketch=1;hachureGap=4;jiggle=2;curveFitting=1;orthogonalLoop=1;jettySize=auto;html=1;exitX=1;exitY=0.5;exitDx=0;exitDy=0;entryX=0;entryY=0.5;entryDx=0;entryDy=0;fontFamily=Architects Daughter;fontSource=https%3A%2F%2Ffonts.googleapis.com%2Fcss%3Ffamily%3DArchitects%2BDaughter;fontSize=16;curved=1;" edge="1" parent="1" source="FXFVnluip6qXLuJPzOiz-2" target="FXFVnluip6qXLuJPzOiz-5">
          <mxGeometry relative="1" as="geometry" />
        </mxCell>
        <mxCell id="FXFVnluip6qXLuJPzOiz-2" value="gob" style="rounded=1;whiteSpace=wrap;html=1;sketch=1;hachureGap=4;jiggle=2;curveFitting=1;fontFamily=Architects Daughter;fontSource=https%3A%2F%2Ffonts.googleapis.com%2Fcss%3Ffamily%3DArchitects%2BDaughter;fontSize=20;fillColor=#dae8fc;strokeColor=#6c8ebf;" vertex="1" parent="1">
          <mxGeometry x="350" y="130" width="110" height="40" as="geometry" />
        </mxCell>
        <mxCell id="FXFVnluip6qXLuJPzOiz-9" style="edgeStyle=orthogonalEdgeStyle;rounded=0;sketch=1;hachureGap=4;jiggle=2;curveFitting=1;orthogonalLoop=1;jettySize=auto;html=1;exitX=1;exitY=0.5;exitDx=0;exitDy=0;fontFamily=Architects Daughter;fontSource=https%3A%2F%2Ffonts.googleapis.com%2Fcss%3Ffamily%3DArchitects%2BDaughter;fontSize=16;curved=1;" edge="1" parent="1" source="FXFVnluip6qXLuJPzOiz-3" target="FXFVnluip6qXLuJPzOiz-4">
          <mxGeometry relative="1" as="geometry" />
        </mxCell>
        <mxCell id="FXFVnluip6qXLuJPzOiz-3" value="gob" style="rounded=1;whiteSpace=wrap;html=1;sketch=1;hachureGap=4;jiggle=2;curveFitting=1;fontFamily=Architects Daughter;fontSource=https%3A%2F%2Ffonts.googleapis.com%2Fcss%3Ffamily%3DArchitects%2BDaughter;fontSize=20;fillColor=#dae8fc;strokeColor=#6c8ebf;" vertex="1" parent="1">
          <mxGeometry x="670" y="130" width="110" height="40" as="geometry" />
        </mxCell>
        <mxCell id="FXFVnluip6qXLuJPzOiz-25" style="edgeStyle=orthogonalEdgeStyle;rounded=0;sketch=1;hachureGap=4;jiggle=2;curveFitting=1;orthogonalLoop=1;jettySize=auto;html=1;entryX=1;entryY=0.5;entryDx=0;entryDy=0;fontFamily=Architects Daughter;fontSource=https%3A%2F%2Ffonts.googleapis.com%2Fcss%3Ffamily%3DArchitects%2BDaughter;fontSize=16;curved=1;exitX=0.5;exitY=1;exitDx=0;exitDy=0;" edge="1" parent="1" source="FXFVnluip6qXLuJPzOiz-4" target="FXFVnluip6qXLuJPzOiz-22">
          <mxGeometry relative="1" as="geometry" />
        </mxCell>
        <mxCell id="FXFVnluip6qXLuJPzOiz-4" value="RPC-server" style="rounded=1;whiteSpace=wrap;html=1;sketch=1;hachureGap=4;jiggle=2;curveFitting=1;fontFamily=Architects Daughter;fontSource=https%3A%2F%2Ffonts.googleapis.com%2Fcss%3Ffamily%3DArchitects%2BDaughter;fontSize=20;fillColor=#dae8fc;strokeColor=#6c8ebf;" vertex="1" parent="1">
          <mxGeometry x="840" y="190" width="120" height="40" as="geometry" />
        </mxCell>
        <mxCell id="FXFVnluip6qXLuJPzOiz-8" style="edgeStyle=orthogonalEdgeStyle;rounded=0;sketch=1;hachureGap=4;jiggle=2;curveFitting=1;orthogonalLoop=1;jettySize=auto;html=1;exitX=1;exitY=0.5;exitDx=0;exitDy=0;fontFamily=Architects Daughter;fontSource=https%3A%2F%2Ffonts.googleapis.com%2Fcss%3Ffamily%3DArchitects%2BDaughter;fontSize=16;curved=1;entryX=0;entryY=0.5;entryDx=0;entryDy=0;" edge="1" parent="1" source="FXFVnluip6qXLuJPzOiz-5" target="FXFVnluip6qXLuJPzOiz-3">
          <mxGeometry relative="1" as="geometry" />
        </mxCell>
        <mxCell id="FXFVnluip6qXLuJPzOiz-5" value="tcp" style="rounded=1;whiteSpace=wrap;html=1;sketch=1;hachureGap=4;jiggle=2;curveFitting=1;fontFamily=Architects Daughter;fontSource=https%3A%2F%2Ffonts.googleapis.com%2Fcss%3Ffamily%3DArchitects%2BDaughter;fontSize=20;fillColor=#dae8fc;strokeColor=#6c8ebf;" vertex="1" parent="1">
          <mxGeometry x="508" y="200" width="110" height="40" as="geometry" />
        </mxCell>
        <mxCell id="FXFVnluip6qXLuJPzOiz-11" value="序列化codec" style="text;html=1;align=center;verticalAlign=middle;resizable=0;points=[];autosize=1;strokeColor=none;fillColor=none;fontSize=20;fontFamily=Architects Daughter;" vertex="1" parent="1">
          <mxGeometry x="335" y="90" width="140" height="40" as="geometry" />
        </mxCell>
        <mxCell id="FXFVnluip6qXLuJPzOiz-12" value="网络通信" style="text;html=1;align=center;verticalAlign=middle;resizable=0;points=[];autosize=1;strokeColor=none;fillColor=none;fontSize=20;fontFamily=Architects Daughter;" vertex="1" parent="1">
          <mxGeometry x="514" y="90" width="100" height="40" as="geometry" />
        </mxCell>
        <mxCell id="FXFVnluip6qXLuJPzOiz-13" value="反序列化codec" style="text;html=1;align=center;verticalAlign=middle;resizable=0;points=[];autosize=1;strokeColor=none;fillColor=none;fontSize=20;fontFamily=Architects Daughter;" vertex="1" parent="1">
          <mxGeometry x="645" y="90" width="160" height="40" as="geometry" />
        </mxCell>
        <mxCell id="FXFVnluip6qXLuJPzOiz-18" value="" style="endArrow=none;dashed=1;html=1;rounded=0;sketch=1;hachureGap=4;jiggle=2;curveFitting=1;fontFamily=Architects Daughter;fontSource=https%3A%2F%2Ffonts.googleapis.com%2Fcss%3Ffamily%3DArchitects%2BDaughter;fontSize=16;" edge="1" parent="1">
          <mxGeometry width="50" height="50" relative="1" as="geometry">
            <mxPoint x="480" y="330" as="sourcePoint" />
            <mxPoint x="480" y="80" as="targetPoint" />
          </mxGeometry>
        </mxCell>
        <mxCell id="FXFVnluip6qXLuJPzOiz-19" value="" style="endArrow=none;dashed=1;html=1;rounded=0;sketch=1;hachureGap=4;jiggle=2;curveFitting=1;fontFamily=Architects Daughter;fontSource=https%3A%2F%2Ffonts.googleapis.com%2Fcss%3Ffamily%3DArchitects%2BDaughter;fontSize=16;" edge="1" parent="1">
          <mxGeometry width="50" height="50" relative="1" as="geometry">
            <mxPoint x="640" y="330" as="sourcePoint" />
            <mxPoint x="640" y="80" as="targetPoint" />
          </mxGeometry>
        </mxCell>
        <mxCell id="FXFVnluip6qXLuJPzOiz-20" style="edgeStyle=orthogonalEdgeStyle;rounded=0;sketch=1;hachureGap=4;jiggle=2;curveFitting=1;orthogonalLoop=1;jettySize=auto;html=1;exitX=1;exitY=0.5;exitDx=0;exitDy=0;entryX=0;entryY=0.5;entryDx=0;entryDy=0;fontFamily=Architects Daughter;fontSource=https%3A%2F%2Ffonts.googleapis.com%2Fcss%3Ffamily%3DArchitects%2BDaughter;fontSize=16;curved=1;" edge="1" parent="1" source="FXFVnluip6qXLuJPzOiz-21" target="FXFVnluip6qXLuJPzOiz-5">
          <mxGeometry relative="1" as="geometry">
            <mxPoint x="508" y="289.9999999999999" as="targetPoint" />
          </mxGeometry>
        </mxCell>
        <mxCell id="FXFVnluip6qXLuJPzOiz-26" style="edgeStyle=orthogonalEdgeStyle;rounded=0;sketch=1;hachureGap=4;jiggle=2;curveFitting=1;orthogonalLoop=1;jettySize=auto;html=1;exitX=0;exitY=0.5;exitDx=0;exitDy=0;entryX=1;entryY=0.75;entryDx=0;entryDy=0;fontFamily=Architects Daughter;fontSource=https%3A%2F%2Ffonts.googleapis.com%2Fcss%3Ffamily%3DArchitects%2BDaughter;fontSize=16;curved=1;" edge="1" parent="1" source="FXFVnluip6qXLuJPzOiz-21" target="FXFVnluip6qXLuJPzOiz-1">
          <mxGeometry relative="1" as="geometry" />
        </mxCell>
        <mxCell id="FXFVnluip6qXLuJPzOiz-21" value="gob" style="rounded=1;whiteSpace=wrap;html=1;sketch=1;hachureGap=4;jiggle=2;curveFitting=1;fontFamily=Architects Daughter;fontSource=https%3A%2F%2Ffonts.googleapis.com%2Fcss%3Ffamily%3DArchitects%2BDaughter;fontSize=20;fillColor=#dae8fc;strokeColor=#6c8ebf;" vertex="1" parent="1">
          <mxGeometry x="349" y="270" width="110" height="40" as="geometry" />
        </mxCell>
        <mxCell id="FXFVnluip6qXLuJPzOiz-22" value="gob" style="rounded=1;whiteSpace=wrap;html=1;sketch=1;hachureGap=4;jiggle=2;curveFitting=1;fontFamily=Architects Daughter;fontSource=https%3A%2F%2Ffonts.googleapis.com%2Fcss%3Ffamily%3DArchitects%2BDaughter;fontSize=20;fillColor=#dae8fc;strokeColor=#6c8ebf;" vertex="1" parent="1">
          <mxGeometry x="669" y="270" width="110" height="40" as="geometry" />
        </mxCell>
        <mxCell id="FXFVnluip6qXLuJPzOiz-23" style="edgeStyle=orthogonalEdgeStyle;rounded=0;sketch=1;hachureGap=4;jiggle=2;curveFitting=1;orthogonalLoop=1;jettySize=auto;html=1;exitX=1;exitY=0.5;exitDx=0;exitDy=0;fontFamily=Architects Daughter;fontSource=https%3A%2F%2Ffonts.googleapis.com%2Fcss%3Ffamily%3DArchitects%2BDaughter;fontSize=16;curved=1;entryX=0;entryY=0.5;entryDx=0;entryDy=0;" edge="1" parent="1" source="FXFVnluip6qXLuJPzOiz-5" target="FXFVnluip6qXLuJPzOiz-22">
          <mxGeometry relative="1" as="geometry">
            <mxPoint x="617.9999999999998" y="289.9999999999999" as="sourcePoint" />
          </mxGeometry>
        </mxCell>
        <mxCell id="FXFVnluip6qXLuJPzOiz-27" value="反序列化codec" style="text;html=1;align=center;verticalAlign=middle;resizable=0;points=[];autosize=1;strokeColor=none;fillColor=none;fontSize=20;fontFamily=Architects Daughter;" vertex="1" parent="1">
          <mxGeometry x="325" y="230" width="160" height="40" as="geometry" />
        </mxCell>
        <mxCell id="FXFVnluip6qXLuJPzOiz-28" value="序列化codec" style="text;html=1;align=center;verticalAlign=middle;resizable=0;points=[];autosize=1;strokeColor=none;fillColor=none;fontSize=20;fontFamily=Architects Daughter;" vertex="1" parent="1">
          <mxGeometry x="655" y="230" width="140" height="40" as="geometry" />
        </mxCell>
      </root>
    </mxGraphModel>
  </diagram>
</mxfile>
